# xmcd
#
# Track frame offsets: 
#        150
#        14625
#        24825
#        34350
#        50700
#        62075
#        78575
#        96988
#        116450
#        129013
#        149450
#        164938
#
# Disc length: 2490 seconds
#
# Revision: 0
# Processed by: cddbd v1.5.2PL0 Copyright (c) Steve Scherf et al.
# Submitted via: ExactAudioCopy v1.0b1
#
DISCID=a909b80c
DTITLE=Possessed by Paul James - Feed the Family
DYEAR=2010
DGENRE=Bluegrass
TTITLE0=Four Men From The Row
TTITLE1=Old Man Souls
TTITLE2=Feed The Family
TTITLE3=When It Breaks
TTITLE4=Oh To Rhythm
TTITLE5=Shoulda' Known Better
TTITLE6=Older In My Body
TTITLE7=Take Off Your Mask
TTITLE8=Fathers And Sons
TTITLE9=We Welcome You Home
TTITLE10=Texas Rose
TTITLE11=Color Of My Bloody Nose (Explicit)
EXTD=
EXTT0=
EXTT1=
EXTT2=
EXTT3=
EXTT4=
EXTT5=
EXTT6=
EXTT7=
EXTT8=
EXTT9=
EXTT10=
EXTT11=
PLAYORDER=
